<?xml version="1.0" standalone="no"?>
<!DOCTYPE svg PUBLIC "-//W3C//DTD SVG 20010904//EN"
 "http://www.w3.org/TR/2001/REC-SVG-20010904/DTD/svg10.dtd">
<svg version="1.0" xmlns="http://www.w3.org/2000/svg"
 width="260.000000pt" height="260.000000pt" viewBox="0 0 260.000000 260.000000"
 preserveAspectRatio="xMidYMid meet">
<metadata>
Created by potrace 1.11, written by Peter Selinger 2001-2013
</metadata>
<g transform="translate(0.000000,260.000000) scale(0.100000,-0.100000)"
fill="#000000" stroke="none">
<path d="M1131 2590 c-556 -78 -987 -483 -1107 -1041 -26 -118 -26 -380 0
-498 59 -273 167 -474 360 -667 193 -193 394 -301 667 -360 118 -26 380 -26
498 0 273 59 474 167 667 360 193 193 301 394 360 667 14 62 18 127 18 249 0
122 -4 187 -18 249 -59 273 -167 474 -360 667 -190 189 -384 296 -646 355 -99
23 -340 33 -439 19z m-121 -781 c36 -5 82 -14 103 -20 l37 -10 0 -143 0 -144
-67 28 c-173 73 -333 57 -333 -31 0 -40 33 -69 117 -104 168 -69 264 -140 311
-230 24 -44 27 -61 26 -140 0 -74 -4 -99 -24 -140 -50 -103 -148 -171 -290
-201 -128 -27 -390 -7 -472 37 -16 9 -18 27 -18 165 l0 155 30 -21 c89 -64
253 -111 325 -94 48 12 80 52 71 88 -10 41 -51 71 -153 111 -135 53 -208 111
-253 199 -32 62 -35 77 -35 150 1 66 5 91 26 136 47 98 139 171 259 202 75 20
241 23 340 7z m1025 -39 c89 -31 172 -108 198 -185 60 -175 7 -360 -131 -457
-84 -58 -158 -79 -299 -85 l-123 -6 0 -178 0 -179 -170 0 -170 0 0 561 0 561
313 -4 c299 -4 315 -5 382 -28z"/>
<path d="M1680 1421 l0 -141 53 1 c112 1 159 40 161 132 1 93 -43 136 -149
145 l-65 5 0 -142z"/>
</g>
</svg>
